# xmcd
# 
# Track frame offsets:
#     150
#     15125
#     35275
#     53475
#     73550
#     88450
#     110400
#     130550
# 
# Disc length: 2023
# 
# Revision: 3
# Processed by: cddbd v1.5.2PL0 Copyright (c) Steve Scherf et al.
# Submitted via: BonkEnc v1.0.8
# 
DISCID=5807e508
DTITLE=Kelsey's Woods - Eight Songs
DYEAR=2009
DGENRE=Country
TTITLE0=Santa Fe
TTITLE1=Annabelle
TTITLE2=Toy Soldiers
TTITLE3=Long Road to Heaven
TTITLE4=Rain and Snow
TTITLE5=Virginia Take Me Home
TTITLE6=Just Ain't Enough
TTITLE7=Hank Williams Song
EXTD=
EXTT0=
EXTT1=
EXTT2=
EXTT3=
EXTT4=
EXTT5=
EXTT6=
EXTT7=
PLAYORDER=
